<svg width="38" height="38" viewBox="0 0 38 38" fill="none" xmlns="http://www.w3.org/2000/svg">
<path d="M19 0C18.7508 0 18.5639 0.186885 18.5639 0.436066V7.66229C18.5639 7.91148 18.7508 8.09836 19 8.09836C19.2492 8.09836 19.4361 7.91148 19.4361 7.66229V0.436066C19.4984 0.186885 19.2492 0 19 0ZM5.91803 5.41967C5.79344 5.41967 5.66885 5.48197 5.60656 5.60656C5.41967 5.79344 5.41967 6.04262 5.60656 6.22951L10.7148 11.3377C10.9016 11.5246 11.1508 11.5246 11.3377 11.3377C11.5246 11.1508 11.5246 10.9016 11.3377 10.7148L6.22951 5.60656C6.10492 5.48197 5.98033 5.41967 5.91803 5.41967ZM32.1443 5.41967C32.0197 5.41967 31.8951 5.48197 31.8328 5.54426L26.7246 10.6525C26.5377 10.8393 26.5377 11.0885 26.7246 11.2754C26.9115 11.4623 27.1607 11.4623 27.3475 11.2754L32.4557 6.16721C32.6426 5.98033 32.6426 5.73115 32.4557 5.54426C32.3934 5.48197 32.2688 5.41967 32.1443 5.41967ZM19 12.7082C15.5115 12.7082 12.6459 15.5738 12.6459 19.0623C12.6459 22.5508 15.5115 25.4164 19 25.4164C22.4885 25.4164 25.3541 22.5508 25.3541 19.0623C25.3541 15.5738 22.5508 12.7082 19 12.7082ZM19 13.5803C21.9902 13.5803 24.4197 16.0098 24.4197 19C24.4197 21.9902 21.9902 24.4197 19 24.4197C16.0098 24.4197 13.5803 21.9902 13.5803 19C13.5803 16.0098 16.0098 13.5803 19 13.5803ZM0.436066 18.5639C0.186885 18.5639 0 18.7508 0 19C0 19.2492 0.186885 19.4361 0.436066 19.4361H7.66229C7.91148 19.4361 8.09836 19.2492 8.09836 19C8.09836 18.7508 7.91148 18.5639 7.66229 18.5639H0.436066ZM30.3377 18.5639C30.0885 18.5639 29.9016 18.7508 29.9016 19C29.9016 19.2492 30.0885 19.4361 30.3377 19.4361H37.5639C37.8131 19.4361 38 19.2492 38 19C38 18.7508 37.8131 18.5639 37.5639 18.5639H30.3377ZM11.0262 26.6C10.9016 26.6 10.777 26.6623 10.7148 26.7246L5.60656 31.8328C5.41967 32.0197 5.41967 32.2688 5.60656 32.4557C5.79344 32.6426 6.04262 32.6426 6.22951 32.4557L11.3377 27.3475C11.5246 27.1607 11.5246 26.9115 11.3377 26.7246C11.2754 26.6 11.1508 26.6 11.0262 26.6ZM27.0361 26.6C26.9115 26.6 26.7869 26.6623 26.7246 26.7246C26.5377 26.9115 26.5377 27.1607 26.7246 27.3475L31.8328 32.4557C32.0197 32.6426 32.2688 32.6426 32.4557 32.4557C32.6426 32.2688 32.6426 32.0197 32.4557 31.8328L27.3475 26.7246C27.2852 26.6 27.1607 26.6 27.0361 26.6ZM19 29.9016C18.7508 29.9016 18.5639 30.0885 18.5639 30.3377V37.5639C18.5639 37.8131 18.7508 38 19 38C19.2492 38 19.4361 37.8131 19.4361 37.5639V30.3377C19.4984 30.0885 19.2492 29.9016 19 29.9016Z" fill="#C56952"/>
</svg>
