<svg width="242" height="140" viewBox="0 0 242 140" fill="none" xmlns="http://www.w3.org/2000/svg">
<path d="M1.5 37.1016C2.32843 37.1016 3 36.43 3 35.6016C3 34.7731 2.32843 34.1016 1.5 34.1016C0.671573 34.1016 0 34.7731 0 35.6016C0 36.43 0.671573 37.1016 1.5 37.1016Z" fill="white"/>
<path d="M1.5 54.1016C2.32843 54.1016 3 53.43 3 52.6016C3 51.7731 2.32843 51.1016 1.5 51.1016C0.671573 51.1016 0 51.7731 0 52.6016C0 53.43 0.671573 54.1016 1.5 54.1016Z" fill="white"/>
<path d="M1.5 71.1016C2.32843 71.1016 3 70.43 3 69.6016C3 68.7731 2.32843 68.1016 1.5 68.1016C0.671573 68.1016 0 68.7731 0 69.6016C0 70.43 0.671573 71.1016 1.5 71.1016Z" fill="white"/>
<path d="M1.5 88.1016C2.32843 88.1016 3 87.43 3 86.6016C3 85.7731 2.32843 85.1016 1.5 85.1016C0.671573 85.1016 0 85.7731 0 86.6016C0 87.43 0.671573 88.1016 1.5 88.1016Z" fill="white"/>
<path d="M1.5 105.102C2.32843 105.102 3 104.43 3 103.602C3 102.773 2.32843 102.102 1.5 102.102C0.671573 102.102 0 102.773 0 103.602C0 104.43 0.671573 105.102 1.5 105.102Z" fill="white"/>
<path d="M1.5 122.102C2.32843 122.102 3 121.43 3 120.602C3 119.773 2.32843 119.102 1.5 119.102C0.671573 119.102 0 119.773 0 120.602C0 121.43 0.671573 122.102 1.5 122.102Z" fill="white"/>
<path d="M1.5 139.102C2.32843 139.102 3 138.43 3 137.602C3 136.773 2.32843 136.102 1.5 136.102C0.671573 136.102 0 136.773 0 137.602C0 138.43 0.671573 139.102 1.5 139.102Z" fill="white"/>
<path d="M18.6016 37.1016C19.43 37.1016 20.1016 36.43 20.1016 35.6016C20.1016 34.7731 19.43 34.1016 18.6016 34.1016C17.7731 34.1016 17.1016 34.7731 17.1016 35.6016C17.1016 36.43 17.7731 37.1016 18.6016 37.1016Z" fill="white"/>
<path d="M18.6016 54.1016C19.43 54.1016 20.1016 53.43 20.1016 52.6016C20.1016 51.7731 19.43 51.1016 18.6016 51.1016C17.7731 51.1016 17.1016 51.7731 17.1016 52.6016C17.1016 53.43 17.7731 54.1016 18.6016 54.1016Z" fill="white"/>
<path d="M18.6016 71.1016C19.43 71.1016 20.1016 70.43 20.1016 69.6016C20.1016 68.7731 19.43 68.1016 18.6016 68.1016C17.7731 68.1016 17.1016 68.7731 17.1016 69.6016C17.1016 70.43 17.7731 71.1016 18.6016 71.1016Z" fill="white"/>
<path d="M18.6016 88.1016C19.43 88.1016 20.1016 87.43 20.1016 86.6016C20.1016 85.7731 19.43 85.1016 18.6016 85.1016C17.7731 85.1016 17.1016 85.7731 17.1016 86.6016C17.1016 87.43 17.7731 88.1016 18.6016 88.1016Z" fill="white"/>
<path d="M18.6016 105.102C19.43 105.102 20.1016 104.43 20.1016 103.602C20.1016 102.773 19.43 102.102 18.6016 102.102C17.7731 102.102 17.1016 102.773 17.1016 103.602C17.1016 104.43 17.7731 105.102 18.6016 105.102Z" fill="white"/>
<path d="M18.6016 122.102C19.43 122.102 20.1016 121.43 20.1016 120.602C20.1016 119.773 19.43 119.102 18.6016 119.102C17.7731 119.102 17.1016 119.773 17.1016 120.602C17.1016 121.43 17.7731 122.102 18.6016 122.102Z" fill="white"/>
<path d="M18.6016 139.102C19.43 139.102 20.1016 138.43 20.1016 137.602C20.1016 136.773 19.43 136.102 18.6016 136.102C17.7731 136.102 17.1016 136.773 17.1016 137.602C17.1016 138.43 17.7731 139.102 18.6016 139.102Z" fill="white"/>
<path d="M35.6016 37.1016C36.43 37.1016 37.1016 36.43 37.1016 35.6016C37.1016 34.7731 36.43 34.1016 35.6016 34.1016C34.7731 34.1016 34.1016 34.7731 34.1016 35.6016C34.1016 36.43 34.7731 37.1016 35.6016 37.1016Z" fill="white"/>
<path d="M35.6016 54.1016C36.43 54.1016 37.1016 53.43 37.1016 52.6016C37.1016 51.7731 36.43 51.1016 35.6016 51.1016C34.7731 51.1016 34.1016 51.7731 34.1016 52.6016C34.1016 53.43 34.7731 54.1016 35.6016 54.1016Z" fill="white"/>
<path d="M35.6016 71.1016C36.43 71.1016 37.1016 70.43 37.1016 69.6016C37.1016 68.7731 36.43 68.1016 35.6016 68.1016C34.7731 68.1016 34.1016 68.7731 34.1016 69.6016C34.1016 70.43 34.7731 71.1016 35.6016 71.1016Z" fill="white"/>
<path d="M35.6016 88.1016C36.43 88.1016 37.1016 87.43 37.1016 86.6016C37.1016 85.7731 36.43 85.1016 35.6016 85.1016C34.7731 85.1016 34.1016 85.7731 34.1016 86.6016C34.1016 87.43 34.7731 88.1016 35.6016 88.1016Z" fill="white"/>
<path d="M35.6016 105.102C36.43 105.102 37.1016 104.43 37.1016 103.602C37.1016 102.773 36.43 102.102 35.6016 102.102C34.7731 102.102 34.1016 102.773 34.1016 103.602C34.1016 104.43 34.7731 105.102 35.6016 105.102Z" fill="white"/>
<path d="M35.6016 122.102C36.43 122.102 37.1016 121.43 37.1016 120.602C37.1016 119.773 36.43 119.102 35.6016 119.102C34.7731 119.102 34.1016 119.773 34.1016 120.602C34.1016 121.43 34.7731 122.102 35.6016 122.102Z" fill="white"/>
<path d="M35.6016 139.102C36.43 139.102 37.1016 138.43 37.1016 137.602C37.1016 136.773 36.43 136.102 35.6016 136.102C34.7731 136.102 34.1016 136.773 34.1016 137.602C34.1016 138.43 34.7731 139.102 35.6016 139.102Z" fill="white"/>
<path d="M52.7031 37.1016C53.5316 37.1016 54.2031 36.43 54.2031 35.6016C54.2031 34.7731 53.5316 34.1016 52.7031 34.1016C51.8747 34.1016 51.2031 34.7731 51.2031 35.6016C51.2031 36.43 51.8747 37.1016 52.7031 37.1016Z" fill="white"/>
<path d="M52.7031 54.1016C53.5316 54.1016 54.2031 53.43 54.2031 52.6016C54.2031 51.7731 53.5316 51.1016 52.7031 51.1016C51.8747 51.1016 51.2031 51.7731 51.2031 52.6016C51.2031 53.43 51.8747 54.1016 52.7031 54.1016Z" fill="white"/>
<path d="M52.7031 71.1016C53.5316 71.1016 54.2031 70.43 54.2031 69.6016C54.2031 68.7731 53.5316 68.1016 52.7031 68.1016C51.8747 68.1016 51.2031 68.7731 51.2031 69.6016C51.2031 70.43 51.8747 71.1016 52.7031 71.1016Z" fill="white"/>
<path d="M52.7031 88.1016C53.5316 88.1016 54.2031 87.43 54.2031 86.6016C54.2031 85.7731 53.5316 85.1016 52.7031 85.1016C51.8747 85.1016 51.2031 85.7731 51.2031 86.6016C51.2031 87.43 51.8747 88.1016 52.7031 88.1016Z" fill="white"/>
<path d="M52.7031 105.102C53.5316 105.102 54.2031 104.43 54.2031 103.602C54.2031 102.773 53.5316 102.102 52.7031 102.102C51.8747 102.102 51.2031 102.773 51.2031 103.602C51.2031 104.43 51.8747 105.102 52.7031 105.102Z" fill="white"/>
<path d="M52.7031 122.102C53.5316 122.102 54.2031 121.43 54.2031 120.602C54.2031 119.773 53.5316 119.102 52.7031 119.102C51.8747 119.102 51.2031 119.773 51.2031 120.602C51.2031 121.43 51.8747 122.102 52.7031 122.102Z" fill="white"/>
<path d="M52.7031 139.102C53.5316 139.102 54.2031 138.43 54.2031 137.602C54.2031 136.773 53.5316 136.102 52.7031 136.102C51.8747 136.102 51.2031 136.773 51.2031 137.602C51.2031 138.43 51.8747 139.102 52.7031 139.102Z" fill="white"/>
<path d="M69.7969 37.1016C70.6253 37.1016 71.2969 36.43 71.2969 35.6016C71.2969 34.7731 70.6253 34.1016 69.7969 34.1016C68.9684 34.1016 68.2969 34.7731 68.2969 35.6016C68.2969 36.43 68.9684 37.1016 69.7969 37.1016Z" fill="white"/>
<path d="M69.7969 54.1016C70.6253 54.1016 71.2969 53.43 71.2969 52.6016C71.2969 51.7731 70.6253 51.1016 69.7969 51.1016C68.9684 51.1016 68.2969 51.7731 68.2969 52.6016C68.2969 53.43 68.9684 54.1016 69.7969 54.1016Z" fill="white"/>
<path d="M69.7969 71.1016C70.6253 71.1016 71.2969 70.43 71.2969 69.6016C71.2969 68.7731 70.6253 68.1016 69.7969 68.1016C68.9684 68.1016 68.2969 68.7731 68.2969 69.6016C68.2969 70.43 68.9684 71.1016 69.7969 71.1016Z" fill="white"/>
<path d="M69.7969 88.1016C70.6253 88.1016 71.2969 87.43 71.2969 86.6016C71.2969 85.7731 70.6253 85.1016 69.7969 85.1016C68.9684 85.1016 68.2969 85.7731 68.2969 86.6016C68.2969 87.43 68.9684 88.1016 69.7969 88.1016Z" fill="white"/>
<path d="M69.7969 105.102C70.6253 105.102 71.2969 104.43 71.2969 103.602C71.2969 102.773 70.6253 102.102 69.7969 102.102C68.9684 102.102 68.2969 102.773 68.2969 103.602C68.2969 104.43 68.9684 105.102 69.7969 105.102Z" fill="white"/>
<path d="M69.7969 122.102C70.6253 122.102 71.2969 121.43 71.2969 120.602C71.2969 119.773 70.6253 119.102 69.7969 119.102C68.9684 119.102 68.2969 119.773 68.2969 120.602C68.2969 121.43 68.9684 122.102 69.7969 122.102Z" fill="white"/>
<path d="M69.7969 139.102C70.6253 139.102 71.2969 138.43 71.2969 137.602C71.2969 136.773 70.6253 136.102 69.7969 136.102C68.9684 136.102 68.2969 136.773 68.2969 137.602C68.2969 138.43 68.9684 139.102 69.7969 139.102Z" fill="white"/>
<path d="M86.7969 37.1016C87.6253 37.1016 88.2969 36.43 88.2969 35.6016C88.2969 34.7731 87.6253 34.1016 86.7969 34.1016C85.9684 34.1016 85.2969 34.7731 85.2969 35.6016C85.2969 36.43 85.9684 37.1016 86.7969 37.1016Z" fill="white"/>
<path d="M86.7969 54.1016C87.6253 54.1016 88.2969 53.43 88.2969 52.6016C88.2969 51.7731 87.6253 51.1016 86.7969 51.1016C85.9684 51.1016 85.2969 51.7731 85.2969 52.6016C85.2969 53.43 85.9684 54.1016 86.7969 54.1016Z" fill="white"/>
<path d="M86.7969 71.1016C87.6253 71.1016 88.2969 70.43 88.2969 69.6016C88.2969 68.7731 87.6253 68.1016 86.7969 68.1016C85.9684 68.1016 85.2969 68.7731 85.2969 69.6016C85.2969 70.43 85.9684 71.1016 86.7969 71.1016Z" fill="white"/>
<path d="M86.7969 88.1016C87.6253 88.1016 88.2969 87.43 88.2969 86.6016C88.2969 85.7731 87.6253 85.1016 86.7969 85.1016C85.9684 85.1016 85.2969 85.7731 85.2969 86.6016C85.2969 87.43 85.9684 88.1016 86.7969 88.1016Z" fill="white"/>
<path d="M86.7969 105.102C87.6253 105.102 88.2969 104.43 88.2969 103.602C88.2969 102.773 87.6253 102.102 86.7969 102.102C85.9684 102.102 85.2969 102.773 85.2969 103.602C85.2969 104.43 85.9684 105.102 86.7969 105.102Z" fill="white"/>
<path d="M86.7969 122.102C87.6253 122.102 88.2969 121.43 88.2969 120.602C88.2969 119.773 87.6253 119.102 86.7969 119.102C85.9684 119.102 85.2969 119.773 85.2969 120.602C85.2969 121.43 85.9684 122.102 86.7969 122.102Z" fill="white"/>
<path d="M86.7969 139.102C87.6253 139.102 88.2969 138.43 88.2969 137.602C88.2969 136.773 87.6253 136.102 86.7969 136.102C85.9684 136.102 85.2969 136.773 85.2969 137.602C85.2969 138.43 85.9684 139.102 86.7969 139.102Z" fill="white"/>
<path d="M103.898 37.1016C104.727 37.1016 105.398 36.43 105.398 35.6016C105.398 34.7731 104.727 34.1016 103.898 34.1016C103.07 34.1016 102.398 34.7731 102.398 35.6016C102.398 36.43 103.07 37.1016 103.898 37.1016Z" fill="white"/>
<path d="M103.898 54.1016C104.727 54.1016 105.398 53.43 105.398 52.6016C105.398 51.7731 104.727 51.1016 103.898 51.1016C103.07 51.1016 102.398 51.7731 102.398 52.6016C102.398 53.43 103.07 54.1016 103.898 54.1016Z" fill="white"/>
<path d="M103.898 71.1016C104.727 71.1016 105.398 70.43 105.398 69.6016C105.398 68.7731 104.727 68.1016 103.898 68.1016C103.07 68.1016 102.398 68.7731 102.398 69.6016C102.398 70.43 103.07 71.1016 103.898 71.1016Z" fill="white"/>
<path d="M103.898 88.1016C104.727 88.1016 105.398 87.43 105.398 86.6016C105.398 85.7731 104.727 85.1016 103.898 85.1016C103.07 85.1016 102.398 85.7731 102.398 86.6016C102.398 87.43 103.07 88.1016 103.898 88.1016Z" fill="white"/>
<path d="M103.898 105.102C104.727 105.102 105.398 104.43 105.398 103.602C105.398 102.773 104.727 102.102 103.898 102.102C103.07 102.102 102.398 102.773 102.398 103.602C102.398 104.43 103.07 105.102 103.898 105.102Z" fill="white"/>
<path d="M103.898 122.102C104.727 122.102 105.398 121.43 105.398 120.602C105.398 119.773 104.727 119.102 103.898 119.102C103.07 119.102 102.398 119.773 102.398 120.602C102.398 121.43 103.07 122.102 103.898 122.102Z" fill="white"/>
<path d="M103.898 139.102C104.727 139.102 105.398 138.43 105.398 137.602C105.398 136.773 104.727 136.102 103.898 136.102C103.07 136.102 102.398 136.773 102.398 137.602C102.398 138.43 103.07 139.102 103.898 139.102Z" fill="white"/>
<path d="M121 37.1016C121.828 37.1016 122.5 36.43 122.5 35.6016C122.5 34.7731 121.828 34.1016 121 34.1016C120.172 34.1016 119.5 34.7731 119.5 35.6016C119.5 36.43 120.172 37.1016 121 37.1016Z" fill="white"/>
<path d="M121 54.1016C121.828 54.1016 122.5 53.43 122.5 52.6016C122.5 51.7731 121.828 51.1016 121 51.1016C120.172 51.1016 119.5 51.7731 119.5 52.6016C119.5 53.43 120.172 54.1016 121 54.1016Z" fill="white"/>
<path d="M121 71.1016C121.828 71.1016 122.5 70.43 122.5 69.6016C122.5 68.7731 121.828 68.1016 121 68.1016C120.172 68.1016 119.5 68.7731 119.5 69.6016C119.5 70.43 120.172 71.1016 121 71.1016Z" fill="white"/>
<path d="M121 88.1016C121.828 88.1016 122.5 87.43 122.5 86.6016C122.5 85.7731 121.828 85.1016 121 85.1016C120.172 85.1016 119.5 85.7731 119.5 86.6016C119.5 87.43 120.172 88.1016 121 88.1016Z" fill="white"/>
<path d="M121 105.102C121.828 105.102 122.5 104.43 122.5 103.602C122.5 102.773 121.828 102.102 121 102.102C120.172 102.102 119.5 102.773 119.5 103.602C119.5 104.43 120.172 105.102 121 105.102Z" fill="white"/>
<path d="M121 122.102C121.828 122.102 122.5 121.43 122.5 120.602C122.5 119.773 121.828 119.102 121 119.102C120.172 119.102 119.5 119.773 119.5 120.602C119.5 121.43 120.172 122.102 121 122.102Z" fill="white"/>
<path d="M121 139.102C121.828 139.102 122.5 138.43 122.5 137.602C122.5 136.773 121.828 136.102 121 136.102C120.172 136.102 119.5 136.773 119.5 137.602C119.5 138.43 120.172 139.102 121 139.102Z" fill="white"/>
<path d="M138 37.1016C138.828 37.1016 139.5 36.43 139.5 35.6016C139.5 34.7731 138.828 34.1016 138 34.1016C137.172 34.1016 136.5 34.7731 136.5 35.6016C136.5 36.43 137.172 37.1016 138 37.1016Z" fill="white"/>
<path d="M138 54.1016C138.828 54.1016 139.5 53.43 139.5 52.6016C139.5 51.7731 138.828 51.1016 138 51.1016C137.172 51.1016 136.5 51.7731 136.5 52.6016C136.5 53.43 137.172 54.1016 138 54.1016Z" fill="white"/>
<path d="M138 71.1016C138.828 71.1016 139.5 70.43 139.5 69.6016C139.5 68.7731 138.828 68.1016 138 68.1016C137.172 68.1016 136.5 68.7731 136.5 69.6016C136.5 70.43 137.172 71.1016 138 71.1016Z" fill="white"/>
<path d="M138 88.1016C138.828 88.1016 139.5 87.43 139.5 86.6016C139.5 85.7731 138.828 85.1016 138 85.1016C137.172 85.1016 136.5 85.7731 136.5 86.6016C136.5 87.43 137.172 88.1016 138 88.1016Z" fill="white"/>
<path d="M138 105.102C138.828 105.102 139.5 104.43 139.5 103.602C139.5 102.773 138.828 102.102 138 102.102C137.172 102.102 136.5 102.773 136.5 103.602C136.5 104.43 137.172 105.102 138 105.102Z" fill="white"/>
<path d="M138 122.102C138.828 122.102 139.5 121.43 139.5 120.602C139.5 119.773 138.828 119.102 138 119.102C137.172 119.102 136.5 119.773 136.5 120.602C136.5 121.43 137.172 122.102 138 122.102Z" fill="white"/>
<path d="M138 139.102C138.828 139.102 139.5 138.43 139.5 137.602C139.5 136.773 138.828 136.102 138 136.102C137.172 136.102 136.5 136.773 136.5 137.602C136.5 138.43 137.172 139.102 138 139.102Z" fill="white"/>
<path d="M155.102 37.1016C155.93 37.1016 156.602 36.43 156.602 35.6016C156.602 34.7731 155.93 34.1016 155.102 34.1016C154.273 34.1016 153.602 34.7731 153.602 35.6016C153.602 36.43 154.273 37.1016 155.102 37.1016Z" fill="white"/>
<path d="M155.102 54.1016C155.93 54.1016 156.602 53.43 156.602 52.6016C156.602 51.7731 155.93 51.1016 155.102 51.1016C154.273 51.1016 153.602 51.7731 153.602 52.6016C153.602 53.43 154.273 54.1016 155.102 54.1016Z" fill="white"/>
<path d="M155.102 71.1016C155.93 71.1016 156.602 70.43 156.602 69.6016C156.602 68.7731 155.93 68.1016 155.102 68.1016C154.273 68.1016 153.602 68.7731 153.602 69.6016C153.602 70.43 154.273 71.1016 155.102 71.1016Z" fill="white"/>
<path d="M155.102 88.1016C155.93 88.1016 156.602 87.43 156.602 86.6016C156.602 85.7731 155.93 85.1016 155.102 85.1016C154.273 85.1016 153.602 85.7731 153.602 86.6016C153.602 87.43 154.273 88.1016 155.102 88.1016Z" fill="white"/>
<path d="M155.102 105.102C155.93 105.102 156.602 104.43 156.602 103.602C156.602 102.773 155.93 102.102 155.102 102.102C154.273 102.102 153.602 102.773 153.602 103.602C153.602 104.43 154.273 105.102 155.102 105.102Z" fill="white"/>
<path d="M155.102 122.102C155.93 122.102 156.602 121.43 156.602 120.602C156.602 119.773 155.93 119.102 155.102 119.102C154.273 119.102 153.602 119.773 153.602 120.602C153.602 121.43 154.273 122.102 155.102 122.102Z" fill="white"/>
<path d="M155.102 139.102C155.93 139.102 156.602 138.43 156.602 137.602C156.602 136.773 155.93 136.102 155.102 136.102C154.273 136.102 153.602 136.773 153.602 137.602C153.602 138.43 154.273 139.102 155.102 139.102Z" fill="white"/>
<path d="M172.102 37.1016C172.93 37.1016 173.602 36.43 173.602 35.6016C173.602 34.7731 172.93 34.1016 172.102 34.1016C171.273 34.1016 170.602 34.7731 170.602 35.6016C170.602 36.43 171.273 37.1016 172.102 37.1016Z" fill="white"/>
<path d="M172.102 54.1016C172.93 54.1016 173.602 53.43 173.602 52.6016C173.602 51.7731 172.93 51.1016 172.102 51.1016C171.273 51.1016 170.602 51.7731 170.602 52.6016C170.602 53.43 171.273 54.1016 172.102 54.1016Z" fill="white"/>
<path d="M172.102 71.1016C172.93 71.1016 173.602 70.43 173.602 69.6016C173.602 68.7731 172.93 68.1016 172.102 68.1016C171.273 68.1016 170.602 68.7731 170.602 69.6016C170.602 70.43 171.273 71.1016 172.102 71.1016Z" fill="white"/>
<path d="M172.102 88.1016C172.93 88.1016 173.602 87.43 173.602 86.6016C173.602 85.7731 172.93 85.1016 172.102 85.1016C171.273 85.1016 170.602 85.7731 170.602 86.6016C170.602 87.43 171.273 88.1016 172.102 88.1016Z" fill="white"/>
<path d="M172.102 105.102C172.93 105.102 173.602 104.43 173.602 103.602C173.602 102.773 172.93 102.102 172.102 102.102C171.273 102.102 170.602 102.773 170.602 103.602C170.602 104.43 171.273 105.102 172.102 105.102Z" fill="white"/>
<path d="M172.102 122.102C172.93 122.102 173.602 121.43 173.602 120.602C173.602 119.773 172.93 119.102 172.102 119.102C171.273 119.102 170.602 119.773 170.602 120.602C170.602 121.43 171.273 122.102 172.102 122.102Z" fill="white"/>
<path d="M172.102 139.102C172.93 139.102 173.602 138.43 173.602 137.602C173.602 136.773 172.93 136.102 172.102 136.102C171.273 136.102 170.602 136.773 170.602 137.602C170.602 138.43 171.273 139.102 172.102 139.102Z" fill="white"/>
<path d="M189.203 37.1016C190.032 37.1016 190.703 36.43 190.703 35.6016C190.703 34.7731 190.032 34.1016 189.203 34.1016C188.375 34.1016 187.703 34.7731 187.703 35.6016C187.703 36.43 188.375 37.1016 189.203 37.1016Z" fill="white"/>
<path d="M189.203 54.1016C190.032 54.1016 190.703 53.43 190.703 52.6016C190.703 51.7731 190.032 51.1016 189.203 51.1016C188.375 51.1016 187.703 51.7731 187.703 52.6016C187.703 53.43 188.375 54.1016 189.203 54.1016Z" fill="white"/>
<path d="M189.203 71.1016C190.032 71.1016 190.703 70.43 190.703 69.6016C190.703 68.7731 190.032 68.1016 189.203 68.1016C188.375 68.1016 187.703 68.7731 187.703 69.6016C187.703 70.43 188.375 71.1016 189.203 71.1016Z" fill="white"/>
<path d="M189.203 88.1016C190.032 88.1016 190.703 87.43 190.703 86.6016C190.703 85.7731 190.032 85.1016 189.203 85.1016C188.375 85.1016 187.703 85.7731 187.703 86.6016C187.703 87.43 188.375 88.1016 189.203 88.1016Z" fill="white"/>
<path d="M189.203 105.102C190.032 105.102 190.703 104.43 190.703 103.602C190.703 102.773 190.032 102.102 189.203 102.102C188.375 102.102 187.703 102.773 187.703 103.602C187.703 104.43 188.375 105.102 189.203 105.102Z" fill="white"/>
<path d="M189.203 122.102C190.032 122.102 190.703 121.43 190.703 120.602C190.703 119.773 190.032 119.102 189.203 119.102C188.375 119.102 187.703 119.773 187.703 120.602C187.703 121.43 188.375 122.102 189.203 122.102Z" fill="white"/>
<path d="M189.203 139.102C190.032 139.102 190.703 138.43 190.703 137.602C190.703 136.773 190.032 136.102 189.203 136.102C188.375 136.102 187.703 136.773 187.703 137.602C187.703 138.43 188.375 139.102 189.203 139.102Z" fill="white"/>
<path d="M206.297 37.1016C207.125 37.1016 207.797 36.43 207.797 35.6016C207.797 34.7731 207.125 34.1016 206.297 34.1016C205.468 34.1016 204.797 34.7731 204.797 35.6016C204.797 36.43 205.468 37.1016 206.297 37.1016Z" fill="white"/>
<path d="M206.297 54.1016C207.125 54.1016 207.797 53.43 207.797 52.6016C207.797 51.7731 207.125 51.1016 206.297 51.1016C205.468 51.1016 204.797 51.7731 204.797 52.6016C204.797 53.43 205.468 54.1016 206.297 54.1016Z" fill="white"/>
<path d="M206.297 71.1016C207.125 71.1016 207.797 70.43 207.797 69.6016C207.797 68.7731 207.125 68.1016 206.297 68.1016C205.468 68.1016 204.797 68.7731 204.797 69.6016C204.797 70.43 205.468 71.1016 206.297 71.1016Z" fill="white"/>
<path d="M206.297 88.1016C207.125 88.1016 207.797 87.43 207.797 86.6016C207.797 85.7731 207.125 85.1016 206.297 85.1016C205.468 85.1016 204.797 85.7731 204.797 86.6016C204.797 87.43 205.468 88.1016 206.297 88.1016Z" fill="white"/>
<path d="M206.297 105.102C207.125 105.102 207.797 104.43 207.797 103.602C207.797 102.773 207.125 102.102 206.297 102.102C205.468 102.102 204.797 102.773 204.797 103.602C204.797 104.43 205.468 105.102 206.297 105.102Z" fill="white"/>
<path d="M206.297 122.102C207.125 122.102 207.797 121.43 207.797 120.602C207.797 119.773 207.125 119.102 206.297 119.102C205.468 119.102 204.797 119.773 204.797 120.602C204.797 121.43 205.468 122.102 206.297 122.102Z" fill="white"/>
<path d="M206.297 139.102C207.125 139.102 207.797 138.43 207.797 137.602C207.797 136.773 207.125 136.102 206.297 136.102C205.468 136.102 204.797 136.773 204.797 137.602C204.797 138.43 205.468 139.102 206.297 139.102Z" fill="white"/>
<path d="M223.297 37.1016C224.125 37.1016 224.797 36.43 224.797 35.6016C224.797 34.7731 224.125 34.1016 223.297 34.1016C222.468 34.1016 221.797 34.7731 221.797 35.6016C221.797 36.43 222.468 37.1016 223.297 37.1016Z" fill="white"/>
<path d="M223.297 54.1016C224.125 54.1016 224.797 53.43 224.797 52.6016C224.797 51.7731 224.125 51.1016 223.297 51.1016C222.468 51.1016 221.797 51.7731 221.797 52.6016C221.797 53.43 222.468 54.1016 223.297 54.1016Z" fill="white"/>
<path d="M223.297 71.1016C224.125 71.1016 224.797 70.43 224.797 69.6016C224.797 68.7731 224.125 68.1016 223.297 68.1016C222.468 68.1016 221.797 68.7731 221.797 69.6016C221.797 70.43 222.468 71.1016 223.297 71.1016Z" fill="white"/>
<path d="M223.297 88.1016C224.125 88.1016 224.797 87.43 224.797 86.6016C224.797 85.7731 224.125 85.1016 223.297 85.1016C222.468 85.1016 221.797 85.7731 221.797 86.6016C221.797 87.43 222.468 88.1016 223.297 88.1016Z" fill="white"/>
<path d="M223.297 105.102C224.125 105.102 224.797 104.43 224.797 103.602C224.797 102.773 224.125 102.102 223.297 102.102C222.468 102.102 221.797 102.773 221.797 103.602C221.797 104.43 222.468 105.102 223.297 105.102Z" fill="white"/>
<path d="M223.297 122.102C224.125 122.102 224.797 121.43 224.797 120.602C224.797 119.773 224.125 119.102 223.297 119.102C222.468 119.102 221.797 119.773 221.797 120.602C221.797 121.43 222.468 122.102 223.297 122.102Z" fill="white"/>
<path d="M223.297 139.102C224.125 139.102 224.797 138.43 224.797 137.602C224.797 136.773 224.125 136.102 223.297 136.102C222.468 136.102 221.797 136.773 221.797 137.602C221.797 138.43 222.468 139.102 223.297 139.102Z" fill="white"/>
<path d="M240.398 37.1016C241.227 37.1016 241.898 36.43 241.898 35.6016C241.898 34.7731 241.227 34.1016 240.398 34.1016C239.57 34.1016 238.898 34.7731 238.898 35.6016C238.898 36.43 239.57 37.1016 240.398 37.1016Z" fill="white"/>
<path d="M240.398 54.1016C241.227 54.1016 241.898 53.43 241.898 52.6016C241.898 51.7731 241.227 51.1016 240.398 51.1016C239.57 51.1016 238.898 51.7731 238.898 52.6016C238.898 53.43 239.57 54.1016 240.398 54.1016Z" fill="white"/>
<path d="M240.398 71.1016C241.227 71.1016 241.898 70.43 241.898 69.6016C241.898 68.7731 241.227 68.1016 240.398 68.1016C239.57 68.1016 238.898 68.7731 238.898 69.6016C238.898 70.43 239.57 71.1016 240.398 71.1016Z" fill="white"/>
<path d="M240.398 88.1016C241.227 88.1016 241.898 87.43 241.898 86.6016C241.898 85.7731 241.227 85.1016 240.398 85.1016C239.57 85.1016 238.898 85.7731 238.898 86.6016C238.898 87.43 239.57 88.1016 240.398 88.1016Z" fill="white"/>
<path d="M240.398 105.102C241.227 105.102 241.898 104.43 241.898 103.602C241.898 102.773 241.227 102.102 240.398 102.102C239.57 102.102 238.898 102.773 238.898 103.602C238.898 104.43 239.57 105.102 240.398 105.102Z" fill="white"/>
<path d="M240.398 122.102C241.227 122.102 241.898 121.43 241.898 120.602C241.898 119.773 241.227 119.102 240.398 119.102C239.57 119.102 238.898 119.773 238.898 120.602C238.898 121.43 239.57 122.102 240.398 122.102Z" fill="white"/>
<path d="M240.398 139.102C241.227 139.102 241.898 138.43 241.898 137.602C241.898 136.773 241.227 136.102 240.398 136.102C239.57 136.102 238.898 136.773 238.898 137.602C238.898 138.43 239.57 139.102 240.398 139.102Z" fill="white"/>
<path d="M1.5 3C2.32843 3 3 2.32843 3 1.5C3 0.671573 2.32843 0 1.5 0C0.671573 0 0 0.671573 0 1.5C0 2.32843 0.671573 3 1.5 3Z" fill="white"/>
<path d="M1.5 20C2.32843 20 3 19.3284 3 18.5C3 17.6716 2.32843 17 1.5 17C0.671573 17 0 17.6716 0 18.5C0 19.3284 0.671573 20 1.5 20Z" fill="white"/>
<path d="M18.6016 3C19.43 3 20.1016 2.32843 20.1016 1.5C20.1016 0.671573 19.43 0 18.6016 0C17.7731 0 17.1016 0.671573 17.1016 1.5C17.1016 2.32843 17.7731 3 18.6016 3Z" fill="white"/>
<path d="M18.6016 20C19.43 20 20.1016 19.3284 20.1016 18.5C20.1016 17.6716 19.43 17 18.6016 17C17.7731 17 17.1016 17.6716 17.1016 18.5C17.1016 19.3284 17.7731 20 18.6016 20Z" fill="white"/>
<path d="M35.6016 3C36.43 3 37.1016 2.32843 37.1016 1.5C37.1016 0.671573 36.43 0 35.6016 0C34.7731 0 34.1016 0.671573 34.1016 1.5C34.1016 2.32843 34.7731 3 35.6016 3Z" fill="white"/>
<path d="M35.6016 20C36.43 20 37.1016 19.3284 37.1016 18.5C37.1016 17.6716 36.43 17 35.6016 17C34.7731 17 34.1016 17.6716 34.1016 18.5C34.1016 19.3284 34.7731 20 35.6016 20Z" fill="white"/>
<path d="M52.7031 3C53.5316 3 54.2031 2.32843 54.2031 1.5C54.2031 0.671573 53.5316 0 52.7031 0C51.8747 0 51.2031 0.671573 51.2031 1.5C51.2031 2.32843 51.8747 3 52.7031 3Z" fill="white"/>
<path d="M52.7031 20C53.5316 20 54.2031 19.3284 54.2031 18.5C54.2031 17.6716 53.5316 17 52.7031 17C51.8747 17 51.2031 17.6716 51.2031 18.5C51.2031 19.3284 51.8747 20 52.7031 20Z" fill="white"/>
<path d="M69.7969 3C70.6253 3 71.2969 2.32843 71.2969 1.5C71.2969 0.671573 70.6253 0 69.7969 0C68.9684 0 68.2969 0.671573 68.2969 1.5C68.2969 2.32843 68.9684 3 69.7969 3Z" fill="white"/>
<path d="M69.7969 20C70.6253 20 71.2969 19.3284 71.2969 18.5C71.2969 17.6716 70.6253 17 69.7969 17C68.9684 17 68.2969 17.6716 68.2969 18.5C68.2969 19.3284 68.9684 20 69.7969 20Z" fill="white"/>
<path d="M86.7969 3C87.6253 3 88.2969 2.32843 88.2969 1.5C88.2969 0.671573 87.6253 0 86.7969 0C85.9684 0 85.2969 0.671573 85.2969 1.5C85.2969 2.32843 85.9684 3 86.7969 3Z" fill="white"/>
<path d="M86.7969 20C87.6253 20 88.2969 19.3284 88.2969 18.5C88.2969 17.6716 87.6253 17 86.7969 17C85.9684 17 85.2969 17.6716 85.2969 18.5C85.2969 19.3284 85.9684 20 86.7969 20Z" fill="white"/>
<path d="M103.898 3C104.727 3 105.398 2.32843 105.398 1.5C105.398 0.671573 104.727 0 103.898 0C103.07 0 102.398 0.671573 102.398 1.5C102.398 2.32843 103.07 3 103.898 3Z" fill="white"/>
<path d="M103.898 20C104.727 20 105.398 19.3284 105.398 18.5C105.398 17.6716 104.727 17 103.898 17C103.07 17 102.398 17.6716 102.398 18.5C102.398 19.3284 103.07 20 103.898 20Z" fill="white"/>
<path d="M121 3C121.828 3 122.5 2.32843 122.5 1.5C122.5 0.671573 121.828 0 121 0C120.172 0 119.5 0.671573 119.5 1.5C119.5 2.32843 120.172 3 121 3Z" fill="white"/>
<path d="M121 20C121.828 20 122.5 19.3284 122.5 18.5C122.5 17.6716 121.828 17 121 17C120.172 17 119.5 17.6716 119.5 18.5C119.5 19.3284 120.172 20 121 20Z" fill="white"/>
<path d="M138 3C138.828 3 139.5 2.32843 139.5 1.5C139.5 0.671573 138.828 0 138 0C137.172 0 136.5 0.671573 136.5 1.5C136.5 2.32843 137.172 3 138 3Z" fill="white"/>
<path d="M138 20C138.828 20 139.5 19.3284 139.5 18.5C139.5 17.6716 138.828 17 138 17C137.172 17 136.5 17.6716 136.5 18.5C136.5 19.3284 137.172 20 138 20Z" fill="white"/>
<path d="M155.102 3C155.93 3 156.602 2.32843 156.602 1.5C156.602 0.671573 155.93 0 155.102 0C154.273 0 153.602 0.671573 153.602 1.5C153.602 2.32843 154.273 3 155.102 3Z" fill="white"/>
<path d="M155.102 20C155.93 20 156.602 19.3284 156.602 18.5C156.602 17.6716 155.93 17 155.102 17C154.273 17 153.602 17.6716 153.602 18.5C153.602 19.3284 154.273 20 155.102 20Z" fill="white"/>
<path d="M172.102 3C172.93 3 173.602 2.32843 173.602 1.5C173.602 0.671573 172.93 0 172.102 0C171.273 0 170.602 0.671573 170.602 1.5C170.602 2.32843 171.273 3 172.102 3Z" fill="white"/>
<path d="M172.102 20C172.93 20 173.602 19.3284 173.602 18.5C173.602 17.6716 172.93 17 172.102 17C171.273 17 170.602 17.6716 170.602 18.5C170.602 19.3284 171.273 20 172.102 20Z" fill="white"/>
<path d="M189.203 3C190.032 3 190.703 2.32843 190.703 1.5C190.703 0.671573 190.032 0 189.203 0C188.375 0 187.703 0.671573 187.703 1.5C187.703 2.32843 188.375 3 189.203 3Z" fill="white"/>
<path d="M189.203 20C190.032 20 190.703 19.3284 190.703 18.5C190.703 17.6716 190.032 17 189.203 17C188.375 17 187.703 17.6716 187.703 18.5C187.703 19.3284 188.375 20 189.203 20Z" fill="white"/>
<path d="M206.297 3C207.125 3 207.797 2.32843 207.797 1.5C207.797 0.671573 207.125 0 206.297 0C205.468 0 204.797 0.671573 204.797 1.5C204.797 2.32843 205.468 3 206.297 3Z" fill="white"/>
<path d="M206.297 20C207.125 20 207.797 19.3284 207.797 18.5C207.797 17.6716 207.125 17 206.297 17C205.468 17 204.797 17.6716 204.797 18.5C204.797 19.3284 205.468 20 206.297 20Z" fill="white"/>
<path d="M223.297 3C224.125 3 224.797 2.32843 224.797 1.5C224.797 0.671573 224.125 0 223.297 0C222.468 0 221.797 0.671573 221.797 1.5C221.797 2.32843 222.468 3 223.297 3Z" fill="white"/>
<path d="M223.297 20C224.125 20 224.797 19.3284 224.797 18.5C224.797 17.6716 224.125 17 223.297 17C222.468 17 221.797 17.6716 221.797 18.5C221.797 19.3284 222.468 20 223.297 20Z" fill="white"/>
<path d="M240.398 3C241.227 3 241.898 2.32843 241.898 1.5C241.898 0.671573 241.227 0 240.398 0C239.57 0 238.898 0.671573 238.898 1.5C238.898 2.32843 239.57 3 240.398 3Z" fill="white"/>
<path d="M240.398 20C241.227 20 241.898 19.3284 241.898 18.5C241.898 17.6716 241.227 17 240.398 17C239.57 17 238.898 17.6716 238.898 18.5C238.898 19.3284 239.57 20 240.398 20Z" fill="white"/>
<path d="M124.403 88.3984H147.603C154.203 88.3984 159.603 93.7984 159.603 100.398C159.603 106.998 154.203 112.398 147.603 112.398H131.103C131.103 112.398 122.703 111.598 122.703 120.198C122.703 128.798 122.703 126.898 122.703 126.898" stroke="#F28077" stroke-width="3" stroke-miterlimit="10" stroke-linecap="round"/>
<path d="M133.102 64.3008H156.302C162.902 64.3008 168.302 69.7008 168.302 76.3008C168.302 82.9008 162.902 88.3008 156.302 88.3008H95.6016" stroke="#F28077" stroke-width="3" stroke-miterlimit="10" stroke-linecap="round"/>
<path d="M151.402 76.5H85.6016C79.0016 76.5 73.6016 71.1 73.6016 64.5C73.6016 57.9 79.0016 52.5 85.6016 52.5H135.702" stroke="#F28077" stroke-width="3" stroke-miterlimit="10" stroke-linecap="round"/>
<path d="M104.305 52.4016C97.7047 52.4016 92.3047 47.0016 92.3047 40.4016C92.3047 33.8016 97.7047 28.4016 104.305 28.4016C104.305 28.4016 115.205 28.1016 115.205 20.4016C115.205 12.4016 115.205 12.1016 115.205 12.1016" stroke="#F28077" stroke-width="3" stroke-miterlimit="10" stroke-linecap="round"/>
<path d="M145.805 100.602H94.3047C87.7047 100.602 82.3047 95.2016 82.3047 88.6016C82.3047 82.0016 87.7047 76.6016 94.3047 76.6016H144.405" stroke="#F28077" stroke-width="3" stroke-miterlimit="10" stroke-linecap="round"/>
<path d="M124.403 12V27.3C124.403 27.3 124.703 36.9 113.103 40.3H136.303C142.903 40.3 148.303 45.7 148.303 52.3C148.303 58.9 142.903 64.3 136.303 64.3H86.2031" stroke="#F28077" stroke-width="3" stroke-miterlimit="10" stroke-linecap="round" stroke-linejoin="round"/>
<path d="M113.898 126.602V114.902C113.898 114.902 114.198 100.602 127.798 100.602" stroke="#F28077" stroke-width="3" stroke-miterlimit="10" stroke-linecap="round"/>
</svg>
