<svg width="300" height="182" viewBox="0 0 300 182" fill="none" xmlns="http://www.w3.org/2000/svg">
<path d="M2.57788 5.15575C4.0016 5.15575 5.15575 4.0016 5.15575 2.57788C5.15575 1.15415 4.0016 0 2.57788 0C1.15415 0 0 1.15415 0 2.57788C0 4.0016 1.15415 5.15575 2.57788 5.15575Z" fill="white"/>
<path d="M2.57788 34.5444C4.0016 34.5444 5.15575 33.3903 5.15575 31.9665C5.15575 30.5428 4.0016 29.3887 2.57788 29.3887C1.15415 29.3887 0 30.5428 0 31.9665C0 33.3903 1.15415 34.5444 2.57788 34.5444Z" fill="white"/>
<path d="M2.57788 63.8667C4.0016 63.8667 5.15575 62.7125 5.15575 61.2888C5.15575 59.8651 4.0016 58.7109 2.57788 58.7109C1.15415 58.7109 0 59.8651 0 61.2888C0 62.7125 1.15415 63.8667 2.57788 63.8667Z" fill="white"/>
<path d="M2.57788 93.2534C4.0016 93.2534 5.15575 92.0993 5.15575 90.6755C5.15575 89.2518 4.0016 88.0977 2.57788 88.0977C1.15415 88.0977 0 89.2518 0 90.6755C0 92.0993 1.15415 93.2534 2.57788 93.2534Z" fill="white"/>
<path d="M2.57788 122.644C4.0016 122.644 5.15575 121.49 5.15575 120.066C5.15575 118.642 4.0016 117.488 2.57788 117.488C1.15415 117.488 0 118.642 0 120.066C0 121.49 1.15415 122.644 2.57788 122.644Z" fill="white"/>
<path d="M2.57788 151.966C4.0016 151.966 5.15575 150.812 5.15575 149.388C5.15575 147.965 4.0016 146.811 2.57788 146.811C1.15415 146.811 0 147.965 0 149.388C0 150.812 1.15415 151.966 2.57788 151.966Z" fill="white"/>
<path d="M2.57788 181.355C4.0016 181.355 5.15575 180.201 5.15575 178.777C5.15575 177.353 4.0016 176.199 2.57788 176.199C1.15415 176.199 0 177.353 0 178.777C0 180.201 1.15415 181.355 2.57788 181.355Z" fill="white"/>
<path d="M32.0945 5.15575C33.5182 5.15575 34.6724 4.0016 34.6724 2.57788C34.6724 1.15415 33.5182 0 32.0945 0C30.6708 0 29.5166 1.15415 29.5166 2.57788C29.5166 4.0016 30.6708 5.15575 32.0945 5.15575Z" fill="white"/>
<path d="M32.0945 34.5444C33.5182 34.5444 34.6724 33.3903 34.6724 31.9665C34.6724 30.5428 33.5182 29.3887 32.0945 29.3887C30.6708 29.3887 29.5166 30.5428 29.5166 31.9665C29.5166 33.3903 30.6708 34.5444 32.0945 34.5444Z" fill="white"/>
<path d="M32.0945 63.8667C33.5182 63.8667 34.6724 62.7125 34.6724 61.2888C34.6724 59.8651 33.5182 58.7109 32.0945 58.7109C30.6708 58.7109 29.5166 59.8651 29.5166 61.2888C29.5166 62.7125 30.6708 63.8667 32.0945 63.8667Z" fill="white"/>
<path d="M32.0945 93.2534C33.5182 93.2534 34.6724 92.0993 34.6724 90.6755C34.6724 89.2518 33.5182 88.0977 32.0945 88.0977C30.6708 88.0977 29.5166 89.2518 29.5166 90.6755C29.5166 92.0993 30.6708 93.2534 32.0945 93.2534Z" fill="white"/>
<path d="M32.0945 122.644C33.5182 122.644 34.6724 121.49 34.6724 120.066C34.6724 118.642 33.5182 117.488 32.0945 117.488C30.6708 117.488 29.5166 118.642 29.5166 120.066C29.5166 121.49 30.6708 122.644 32.0945 122.644Z" fill="white"/>
<path d="M32.0945 151.966C33.5182 151.966 34.6724 150.812 34.6724 149.388C34.6724 147.965 33.5182 146.811 32.0945 146.811C30.6708 146.811 29.5166 147.965 29.5166 149.388C29.5166 150.812 30.6708 151.966 32.0945 151.966Z" fill="white"/>
<path d="M32.0945 181.355C33.5182 181.355 34.6724 180.201 34.6724 178.777C34.6724 177.353 33.5182 176.199 32.0945 176.199C30.6708 176.199 29.5166 177.353 29.5166 178.777C29.5166 180.201 30.6708 181.355 32.0945 181.355Z" fill="white"/>
<path d="M61.5469 5.15575C62.9706 5.15575 64.1247 4.0016 64.1247 2.57788C64.1247 1.15415 62.9706 0 61.5469 0C60.1231 0 58.969 1.15415 58.969 2.57788C58.969 4.0016 60.1231 5.15575 61.5469 5.15575Z" fill="white"/>
<path d="M61.5469 34.5444C62.9706 34.5444 64.1247 33.3903 64.1247 31.9665C64.1247 30.5428 62.9706 29.3887 61.5469 29.3887C60.1231 29.3887 58.969 30.5428 58.969 31.9665C58.969 33.3903 60.1231 34.5444 61.5469 34.5444Z" fill="white"/>
<path d="M61.5469 63.8667C62.9706 63.8667 64.1247 62.7125 64.1247 61.2888C64.1247 59.8651 62.9706 58.7109 61.5469 58.7109C60.1231 58.7109 58.969 59.8651 58.969 61.2888C58.969 62.7125 60.1231 63.8667 61.5469 63.8667Z" fill="white"/>
<path d="M61.5469 93.2534C62.9706 93.2534 64.1247 92.0993 64.1247 90.6755C64.1247 89.2518 62.9706 88.0977 61.5469 88.0977C60.1231 88.0977 58.969 89.2518 58.969 90.6755C58.969 92.0993 60.1231 93.2534 61.5469 93.2534Z" fill="white"/>
<path d="M61.5469 122.644C62.9706 122.644 64.1247 121.49 64.1247 120.066C64.1247 118.642 62.9706 117.488 61.5469 117.488C60.1231 117.488 58.969 118.642 58.969 120.066C58.969 121.49 60.1231 122.644 61.5469 122.644Z" fill="white"/>
<path d="M61.5469 151.966C62.9706 151.966 64.1247 150.812 64.1247 149.388C64.1247 147.965 62.9706 146.811 61.5469 146.811C60.1231 146.811 58.969 147.965 58.969 149.388C58.969 150.812 60.1231 151.966 61.5469 151.966Z" fill="white"/>
<path d="M61.5469 181.355C62.9706 181.355 64.1247 180.201 64.1247 178.777C64.1247 177.353 62.9706 176.199 61.5469 176.199C60.1231 176.199 58.969 177.353 58.969 178.777C58.969 180.201 60.1231 181.355 61.5469 181.355Z" fill="white"/>
<path d="M91.0635 5.15575C92.4872 5.15575 93.6413 4.0016 93.6413 2.57788C93.6413 1.15415 92.4872 0 91.0635 0C89.6397 0 88.4856 1.15415 88.4856 2.57788C88.4856 4.0016 89.6397 5.15575 91.0635 5.15575Z" fill="white"/>
<path d="M91.0635 34.5444C92.4872 34.5444 93.6413 33.3903 93.6413 31.9665C93.6413 30.5428 92.4872 29.3887 91.0635 29.3887C89.6397 29.3887 88.4856 30.5428 88.4856 31.9665C88.4856 33.3903 89.6397 34.5444 91.0635 34.5444Z" fill="white"/>
<path d="M91.0635 63.8667C92.4872 63.8667 93.6413 62.7125 93.6413 61.2888C93.6413 59.8651 92.4872 58.7109 91.0635 58.7109C89.6397 58.7109 88.4856 59.8651 88.4856 61.2888C88.4856 62.7125 89.6397 63.8667 91.0635 63.8667Z" fill="white"/>
<path d="M91.0635 93.2534C92.4872 93.2534 93.6413 92.0993 93.6413 90.6755C93.6413 89.2518 92.4872 88.0977 91.0635 88.0977C89.6397 88.0977 88.4856 89.2518 88.4856 90.6755C88.4856 92.0993 89.6397 93.2534 91.0635 93.2534Z" fill="white"/>
<path d="M91.0635 122.644C92.4872 122.644 93.6413 121.49 93.6413 120.066C93.6413 118.642 92.4872 117.488 91.0635 117.488C89.6397 117.488 88.4856 118.642 88.4856 120.066C88.4856 121.49 89.6397 122.644 91.0635 122.644Z" fill="white"/>
<path d="M91.0635 151.966C92.4872 151.966 93.6413 150.812 93.6413 149.388C93.6413 147.965 92.4872 146.811 91.0635 146.811C89.6397 146.811 88.4856 147.965 88.4856 149.388C88.4856 150.812 89.6397 151.966 91.0635 151.966Z" fill="white"/>
<path d="M91.0635 181.355C92.4872 181.355 93.6413 180.201 93.6413 178.777C93.6413 177.353 92.4872 176.199 91.0635 176.199C89.6397 176.199 88.4856 177.353 88.4856 178.777C88.4856 180.201 89.6397 181.355 91.0635 181.355Z" fill="white"/>
<path d="M120.515 5.15575C121.939 5.15575 123.093 4.0016 123.093 2.57788C123.093 1.15415 121.939 0 120.515 0C119.092 0 117.938 1.15415 117.938 2.57788C117.938 4.0016 119.092 5.15575 120.515 5.15575Z" fill="white"/>
<path d="M120.515 34.5444C121.939 34.5444 123.093 33.3903 123.093 31.9665C123.093 30.5428 121.939 29.3887 120.515 29.3887C119.092 29.3887 117.938 30.5428 117.938 31.9665C117.938 33.3903 119.092 34.5444 120.515 34.5444Z" fill="white"/>
<path d="M120.515 63.8667C121.939 63.8667 123.093 62.7125 123.093 61.2888C123.093 59.8651 121.939 58.7109 120.515 58.7109C119.092 58.7109 117.938 59.8651 117.938 61.2888C117.938 62.7125 119.092 63.8667 120.515 63.8667Z" fill="white"/>
<path d="M120.515 93.2534C121.939 93.2534 123.093 92.0993 123.093 90.6755C123.093 89.2518 121.939 88.0977 120.515 88.0977C119.092 88.0977 117.938 89.2518 117.938 90.6755C117.938 92.0993 119.092 93.2534 120.515 93.2534Z" fill="white"/>
<path d="M120.515 122.644C121.939 122.644 123.093 121.49 123.093 120.066C123.093 118.642 121.939 117.488 120.515 117.488C119.092 117.488 117.938 118.642 117.938 120.066C117.938 121.49 119.092 122.644 120.515 122.644Z" fill="white"/>
<path d="M120.515 151.966C121.939 151.966 123.093 150.812 123.093 149.388C123.093 147.965 121.939 146.811 120.515 146.811C119.092 146.811 117.938 147.965 117.938 149.388C117.938 150.812 119.092 151.966 120.515 151.966Z" fill="white"/>
<path d="M120.515 181.355C121.939 181.355 123.093 180.201 123.093 178.777C123.093 177.353 121.939 176.199 120.515 176.199C119.092 176.199 117.938 177.353 117.938 178.777C117.938 180.201 119.092 181.355 120.515 181.355Z" fill="white"/>
<path d="M150.032 5.15575C151.456 5.15575 152.61 4.0016 152.61 2.57788C152.61 1.15415 151.456 0 150.032 0C148.609 0 147.455 1.15415 147.455 2.57788C147.455 4.0016 148.609 5.15575 150.032 5.15575Z" fill="white"/>
<path d="M150.032 34.5444C151.456 34.5444 152.61 33.3903 152.61 31.9665C152.61 30.5428 151.456 29.3887 150.032 29.3887C148.609 29.3887 147.455 30.5428 147.455 31.9665C147.455 33.3903 148.609 34.5444 150.032 34.5444Z" fill="white"/>
<path d="M150.032 63.8667C151.456 63.8667 152.61 62.7125 152.61 61.2888C152.61 59.8651 151.456 58.7109 150.032 58.7109C148.609 58.7109 147.455 59.8651 147.455 61.2888C147.455 62.7125 148.609 63.8667 150.032 63.8667Z" fill="white"/>
<path d="M150.032 93.2534C151.456 93.2534 152.61 92.0993 152.61 90.6755C152.61 89.2518 151.456 88.0977 150.032 88.0977C148.609 88.0977 147.455 89.2518 147.455 90.6755C147.455 92.0993 148.609 93.2534 150.032 93.2534Z" fill="white"/>
<path d="M150.032 122.644C151.456 122.644 152.61 121.49 152.61 120.066C152.61 118.642 151.456 117.488 150.032 117.488C148.609 117.488 147.455 118.642 147.455 120.066C147.455 121.49 148.609 122.644 150.032 122.644Z" fill="white"/>
<path d="M150.032 151.966C151.456 151.966 152.61 150.812 152.61 149.388C152.61 147.965 151.456 146.811 150.032 146.811C148.609 146.811 147.455 147.965 147.455 149.388C147.455 150.812 148.609 151.966 150.032 151.966Z" fill="white"/>
<path d="M150.032 181.355C151.456 181.355 152.61 180.201 152.61 178.777C152.61 177.353 151.456 176.199 150.032 176.199C148.609 176.199 147.455 177.353 147.455 178.777C147.455 180.201 148.609 181.355 150.032 181.355Z" fill="white"/>
<path d="M179.485 5.15575C180.909 5.15575 182.063 4.0016 182.063 2.57788C182.063 1.15415 180.909 0 179.485 0C178.061 0 176.907 1.15415 176.907 2.57788C176.907 4.0016 178.061 5.15575 179.485 5.15575Z" fill="white"/>
<path d="M179.485 34.5444C180.909 34.5444 182.063 33.3903 182.063 31.9665C182.063 30.5428 180.909 29.3887 179.485 29.3887C178.061 29.3887 176.907 30.5428 176.907 31.9665C176.907 33.3903 178.061 34.5444 179.485 34.5444Z" fill="white"/>
<path d="M179.485 63.8667C180.909 63.8667 182.063 62.7125 182.063 61.2888C182.063 59.8651 180.909 58.7109 179.485 58.7109C178.061 58.7109 176.907 59.8651 176.907 61.2888C176.907 62.7125 178.061 63.8667 179.485 63.8667Z" fill="white"/>
<path d="M179.485 93.2534C180.909 93.2534 182.063 92.0993 182.063 90.6755C182.063 89.2518 180.909 88.0977 179.485 88.0977C178.061 88.0977 176.907 89.2518 176.907 90.6755C176.907 92.0993 178.061 93.2534 179.485 93.2534Z" fill="white"/>
<path d="M179.485 122.644C180.909 122.644 182.063 121.49 182.063 120.066C182.063 118.642 180.909 117.488 179.485 117.488C178.061 117.488 176.907 118.642 176.907 120.066C176.907 121.49 178.061 122.644 179.485 122.644Z" fill="white"/>
<path d="M179.485 151.966C180.909 151.966 182.063 150.812 182.063 149.388C182.063 147.965 180.909 146.811 179.485 146.811C178.061 146.811 176.907 147.965 176.907 149.388C176.907 150.812 178.061 151.966 179.485 151.966Z" fill="white"/>
<path d="M179.485 181.355C180.909 181.355 182.063 180.201 182.063 178.777C182.063 177.353 180.909 176.199 179.485 176.199C178.061 176.199 176.907 177.353 176.907 178.777C176.907 180.201 178.061 181.355 179.485 181.355Z" fill="white"/>
<path d="M208.937 5.15575C210.361 5.15575 211.515 4.0016 211.515 2.57788C211.515 1.15415 210.361 0 208.937 0C207.514 0 206.359 1.15415 206.359 2.57788C206.359 4.0016 207.514 5.15575 208.937 5.15575Z" fill="white"/>
<path d="M208.937 34.5444C210.361 34.5444 211.515 33.3903 211.515 31.9665C211.515 30.5428 210.361 29.3887 208.937 29.3887C207.514 29.3887 206.359 30.5428 206.359 31.9665C206.359 33.3903 207.514 34.5444 208.937 34.5444Z" fill="white"/>
<path d="M208.937 63.8667C210.361 63.8667 211.515 62.7125 211.515 61.2888C211.515 59.8651 210.361 58.7109 208.937 58.7109C207.514 58.7109 206.359 59.8651 206.359 61.2888C206.359 62.7125 207.514 63.8667 208.937 63.8667Z" fill="white"/>
<path d="M208.937 93.2534C210.361 93.2534 211.515 92.0993 211.515 90.6755C211.515 89.2518 210.361 88.0977 208.937 88.0977C207.514 88.0977 206.359 89.2518 206.359 90.6755C206.359 92.0993 207.514 93.2534 208.937 93.2534Z" fill="white"/>
<path d="M208.937 122.644C210.361 122.644 211.515 121.49 211.515 120.066C211.515 118.642 210.361 117.488 208.937 117.488C207.514 117.488 206.359 118.642 206.359 120.066C206.359 121.49 207.514 122.644 208.937 122.644Z" fill="white"/>
<path d="M208.937 151.966C210.361 151.966 211.515 150.812 211.515 149.388C211.515 147.965 210.361 146.811 208.937 146.811C207.514 146.811 206.359 147.965 206.359 149.388C206.359 150.812 207.514 151.966 208.937 151.966Z" fill="white"/>
<path d="M208.937 181.355C210.361 181.355 211.515 180.201 211.515 178.777C211.515 177.353 210.361 176.199 208.937 176.199C207.514 176.199 206.359 177.353 206.359 178.777C206.359 180.201 207.514 181.355 208.937 181.355Z" fill="white"/>
<path d="M238.453 5.15575C239.877 5.15575 241.031 4.0016 241.031 2.57788C241.031 1.15415 239.877 0 238.453 0C237.029 0 235.875 1.15415 235.875 2.57788C235.875 4.0016 237.029 5.15575 238.453 5.15575Z" fill="white"/>
<path d="M238.453 34.5444C239.877 34.5444 241.031 33.3903 241.031 31.9665C241.031 30.5428 239.877 29.3887 238.453 29.3887C237.029 29.3887 235.875 30.5428 235.875 31.9665C235.875 33.3903 237.029 34.5444 238.453 34.5444Z" fill="white"/>
<path d="M238.453 63.8667C239.877 63.8667 241.031 62.7125 241.031 61.2888C241.031 59.8651 239.877 58.7109 238.453 58.7109C237.029 58.7109 235.875 59.8651 235.875 61.2888C235.875 62.7125 237.029 63.8667 238.453 63.8667Z" fill="white"/>
<path d="M238.453 93.2534C239.877 93.2534 241.031 92.0993 241.031 90.6755C241.031 89.2518 239.877 88.0977 238.453 88.0977C237.029 88.0977 235.875 89.2518 235.875 90.6755C235.875 92.0993 237.029 93.2534 238.453 93.2534Z" fill="white"/>
<path d="M238.453 122.644C239.877 122.644 241.031 121.49 241.031 120.066C241.031 118.642 239.877 117.488 238.453 117.488C237.029 117.488 235.875 118.642 235.875 120.066C235.875 121.49 237.029 122.644 238.453 122.644Z" fill="white"/>
<path d="M238.453 151.966C239.877 151.966 241.031 150.812 241.031 149.388C241.031 147.965 239.877 146.811 238.453 146.811C237.029 146.811 235.875 147.965 235.875 149.388C235.875 150.812 237.029 151.966 238.453 151.966Z" fill="white"/>
<path d="M238.453 181.355C239.877 181.355 241.031 180.201 241.031 178.777C241.031 177.353 239.877 176.199 238.453 176.199C237.029 176.199 235.875 177.353 235.875 178.777C235.875 180.201 237.029 181.355 238.453 181.355Z" fill="white"/>
<path d="M267.906 5.15575C269.329 5.15575 270.483 4.0016 270.483 2.57788C270.483 1.15415 269.329 0 267.906 0C266.482 0 265.328 1.15415 265.328 2.57788C265.328 4.0016 266.482 5.15575 267.906 5.15575Z" fill="white"/>
<path d="M267.906 34.5444C269.329 34.5444 270.483 33.3903 270.483 31.9665C270.483 30.5428 269.329 29.3887 267.906 29.3887C266.482 29.3887 265.328 30.5428 265.328 31.9665C265.328 33.3903 266.482 34.5444 267.906 34.5444Z" fill="white"/>
<path d="M267.906 63.8667C269.329 63.8667 270.483 62.7125 270.483 61.2888C270.483 59.8651 269.329 58.7109 267.906 58.7109C266.482 58.7109 265.328 59.8651 265.328 61.2888C265.328 62.7125 266.482 63.8667 267.906 63.8667Z" fill="white"/>
<path d="M267.906 93.2534C269.329 93.2534 270.483 92.0993 270.483 90.6755C270.483 89.2518 269.329 88.0977 267.906 88.0977C266.482 88.0977 265.328 89.2518 265.328 90.6755C265.328 92.0993 266.482 93.2534 267.906 93.2534Z" fill="white"/>
<path d="M267.906 122.644C269.329 122.644 270.483 121.49 270.483 120.066C270.483 118.642 269.329 117.488 267.906 117.488C266.482 117.488 265.328 118.642 265.328 120.066C265.328 121.49 266.482 122.644 267.906 122.644Z" fill="white"/>
<path d="M267.906 151.966C269.329 151.966 270.483 150.812 270.483 149.388C270.483 147.965 269.329 146.811 267.906 146.811C266.482 146.811 265.328 147.965 265.328 149.388C265.328 150.812 266.482 151.966 267.906 151.966Z" fill="white"/>
<path d="M267.906 181.355C269.329 181.355 270.483 180.201 270.483 178.777C270.483 177.353 269.329 176.199 267.906 176.199C266.482 176.199 265.328 177.353 265.328 178.777C265.328 180.201 266.482 181.355 267.906 181.355Z" fill="white"/>
<path d="M297.422 5.15575C298.846 5.15575 300 4.0016 300 2.57788C300 1.15415 298.846 0 297.422 0C295.998 0 294.844 1.15415 294.844 2.57788C294.844 4.0016 295.998 5.15575 297.422 5.15575Z" fill="white"/>
<path d="M297.422 34.5444C298.846 34.5444 300 33.3903 300 31.9665C300 30.5428 298.846 29.3887 297.422 29.3887C295.998 29.3887 294.844 30.5428 294.844 31.9665C294.844 33.3903 295.998 34.5444 297.422 34.5444Z" fill="white"/>
<path d="M297.422 63.8667C298.846 63.8667 300 62.7125 300 61.2888C300 59.8651 298.846 58.7109 297.422 58.7109C295.998 58.7109 294.844 59.8651 294.844 61.2888C294.844 62.7125 295.998 63.8667 297.422 63.8667Z" fill="white"/>
<path d="M297.422 93.2534C298.846 93.2534 300 92.0993 300 90.6755C300 89.2518 298.846 88.0977 297.422 88.0977C295.998 88.0977 294.844 89.2518 294.844 90.6755C294.844 92.0993 295.998 93.2534 297.422 93.2534Z" fill="white"/>
<path d="M297.422 122.644C298.846 122.644 300 121.49 300 120.066C300 118.642 298.846 117.488 297.422 117.488C295.998 117.488 294.844 118.642 294.844 120.066C294.844 121.49 295.998 122.644 297.422 122.644Z" fill="white"/>
<path d="M297.422 151.966C298.846 151.966 300 150.812 300 149.388C300 147.965 298.846 146.811 297.422 146.811C295.998 146.811 294.844 147.965 294.844 149.388C294.844 150.812 295.998 151.966 297.422 151.966Z" fill="white"/>
<path d="M297.422 181.355C298.846 181.355 300 180.201 300 178.777C300 177.353 298.846 176.199 297.422 176.199C295.998 176.199 294.844 177.353 294.844 178.777C294.844 180.201 295.998 181.355 297.422 181.355Z" fill="white"/>
<path d="M51.8799 119.936H248.121" stroke="#F28077" stroke-width="3" stroke-miterlimit="10" stroke-linecap="round"/>
<path d="M150.032 136.047C159.713 136.047 167.562 128.199 167.562 118.518C167.562 108.837 159.713 100.988 150.032 100.988C140.351 100.988 132.502 108.837 132.502 118.518C132.502 128.199 140.351 136.047 150.032 136.047Z" fill="#DFD4CB" stroke="#F28077" stroke-width="3" stroke-miterlimit="10"/>
</svg>
