<svg width="42" height="38" viewBox="0 0 42 38" fill="none" xmlns="http://www.w3.org/2000/svg">
<path d="M10.6112 0C7.86237 0 5.11357 1.14163 3.0924 3.34335C-1.0308 7.74678 -1.0308 14.8412 3.0924 19.2446L20.5553 37.8369C20.6362 37.9185 20.7979 38 20.9596 38C21.1213 38 21.283 37.9185 21.3638 37.8369C27.1848 31.6395 33.0058 25.4421 38.9076 19.3262C43.0308 14.9227 43.0308 7.82833 38.9076 3.42489C34.7844 -0.978541 27.9933 -0.978541 23.8701 3.42489L20.9596 6.27897L18.1299 3.2618C16.0279 1.14163 13.2791 0 10.6112 0ZM10.6112 1.06009C13.0366 1.06009 15.462 2.03863 17.3215 4.07725L20.5553 7.50215C20.6362 7.58369 20.7979 7.66524 20.9596 7.66524C21.1213 7.66524 21.283 7.58369 21.3638 7.50215L24.5977 4.07725C28.3166 0.081545 34.2993 0.081545 38.0991 4.07725C41.8181 8.07296 41.8181 14.4335 38.0991 18.4292C32.359 24.4635 26.6189 30.4979 20.9596 36.5322L3.90087 18.4292C0.101059 14.4335 0.101059 8.07296 3.90087 4.07725C5.76035 2.12017 8.18575 1.06009 10.6112 1.06009Z" fill="#C56952"/>
</svg>
