<svg width="45" height="61" viewBox="0 0 45 61" fill="none" xmlns="http://www.w3.org/2000/svg">
<path d="M18.3836 0.119374C17.9061 -0.119374 17.1898 0 16.9511 0.477495L0.119374 29.9628C0 30.3209 0 30.6791 0.119374 31.0372C0.358121 31.3953 0.596869 31.5147 1.07436 31.5147H16.1155L0.119374 59.4481C-0.119374 59.9256 0 60.6419 0.477495 60.8806C0.596869 61 0.835617 61 0.95499 61C1.31311 61 1.67123 60.7613 1.90998 60.5225L18.7417 31.0372C18.9804 30.6791 18.9804 30.3209 18.7417 29.9628C18.5029 29.6047 18.2642 29.4853 17.7867 29.4853H2.7456L18.7417 1.55186C19.0998 1.07436 18.8611 0.358121 18.3836 0.119374Z" fill="#BA6E58"/>
<path d="M43.6932 0.119374C43.2158 -0.119374 42.4995 0 42.2608 0.477495L25.4291 29.9628C25.1903 30.3209 25.1903 30.6791 25.4291 31.0372C25.6678 31.3953 25.9066 31.5147 26.3841 31.5147H41.4251L25.4291 59.4481C25.1903 59.9256 25.3097 60.6419 25.7872 60.8806C25.9066 61 26.1453 61 26.2647 61C26.6228 61 26.9809 60.7613 27.2197 60.5225L44.0514 31.0372C44.2901 30.6791 44.2901 30.3209 44.0514 29.9628C43.8126 29.6047 43.5739 29.4853 43.0964 29.4853H28.1747L44.0514 1.55186C44.2901 1.07436 44.1707 0.358121 43.6932 0.119374Z" fill="#BA6E58"/>
</svg>
