<svg width="133" height="80" viewBox="0 0 133 80" fill="none" xmlns="http://www.w3.org/2000/svg">
<path d="M1.1492 2.28573C1.78388 2.28573 2.29839 1.77405 2.29839 1.14287C2.29839 0.511678 1.78388 0 1.1492 0C0.514513 0 0 0.511678 0 1.14287C0 1.77405 0.514513 2.28573 1.1492 2.28573Z" fill="white"/>
<path d="M1.1492 15.2369C1.78388 15.2369 2.29839 14.7252 2.29839 14.094C2.29839 13.4629 1.78388 12.9512 1.1492 12.9512C0.514513 12.9512 0 13.4629 0 14.094C0 14.7252 0.514513 15.2369 1.1492 15.2369Z" fill="white"/>
<path d="M1.1492 28.192C1.78388 28.192 2.29839 27.6803 2.29839 27.0491C2.29839 26.4179 1.78388 25.9062 1.1492 25.9062C0.514513 25.9062 0 26.4179 0 27.0491C0 27.6803 0.514513 28.192 1.1492 28.192Z" fill="white"/>
<path d="M1.1492 41.1432C1.78388 41.1432 2.29839 40.6315 2.29839 40.0003C2.29839 39.3691 1.78388 38.8574 1.1492 38.8574C0.514513 38.8574 0 39.3691 0 40.0003C0 40.6315 0.514513 41.1432 1.1492 41.1432Z" fill="white"/>
<path d="M1.1492 54.0963C1.78388 54.0963 2.29839 53.5846 2.29839 52.9534C2.29839 52.3222 1.78388 51.8105 1.1492 51.8105C0.514513 51.8105 0 52.3222 0 52.9534C0 53.5846 0.514513 54.0963 1.1492 54.0963Z" fill="white"/>
<path d="M1.1492 67.0475C1.78388 67.0475 2.29839 66.5358 2.29839 65.9046C2.29839 65.2734 1.78388 64.7617 1.1492 64.7617C0.514513 64.7617 0 65.2734 0 65.9046C0 66.5358 0.514513 67.0475 1.1492 67.0475Z" fill="white"/>
<path d="M1.1492 80.0006C1.78388 80.0006 2.29839 79.4889 2.29839 78.8577C2.29839 78.2265 1.78388 77.7148 1.1492 77.7148C0.514513 77.7148 0 78.2265 0 78.8577C0 79.4889 0.514513 80.0006 1.1492 80.0006Z" fill="white"/>
<path d="M14.2498 2.28573C14.8845 2.28573 15.399 1.77405 15.399 1.14287C15.399 0.511678 14.8845 0 14.2498 0C13.6151 0 13.1006 0.511678 13.1006 1.14287C13.1006 1.77405 13.6151 2.28573 14.2498 2.28573Z" fill="white"/>
<path d="M14.2498 15.2369C14.8845 15.2369 15.399 14.7252 15.399 14.094C15.399 13.4629 14.8845 12.9512 14.2498 12.9512C13.6151 12.9512 13.1006 13.4629 13.1006 14.094C13.1006 14.7252 13.6151 15.2369 14.2498 15.2369Z" fill="white"/>
<path d="M14.2498 28.192C14.8845 28.192 15.399 27.6803 15.399 27.0491C15.399 26.4179 14.8845 25.9062 14.2498 25.9062C13.6151 25.9062 13.1006 26.4179 13.1006 27.0491C13.1006 27.6803 13.6151 28.192 14.2498 28.192Z" fill="white"/>
<path d="M14.2498 41.1432C14.8845 41.1432 15.399 40.6315 15.399 40.0003C15.399 39.3691 14.8845 38.8574 14.2498 38.8574C13.6151 38.8574 13.1006 39.3691 13.1006 40.0003C13.1006 40.6315 13.6151 41.1432 14.2498 41.1432Z" fill="white"/>
<path d="M14.2498 54.0963C14.8845 54.0963 15.399 53.5846 15.399 52.9534C15.399 52.3222 14.8845 51.8105 14.2498 51.8105C13.6151 51.8105 13.1006 52.3222 13.1006 52.9534C13.1006 53.5846 13.6151 54.0963 14.2498 54.0963Z" fill="white"/>
<path d="M14.2498 67.0475C14.8845 67.0475 15.399 66.5358 15.399 65.9046C15.399 65.2734 14.8845 64.7617 14.2498 64.7617C13.6151 64.7617 13.1006 65.2734 13.1006 65.9046C13.1006 66.5358 13.6151 67.0475 14.2498 67.0475Z" fill="white"/>
<path d="M14.2498 80.0006C14.8845 80.0006 15.399 79.4889 15.399 78.8577C15.399 78.2265 14.8845 77.7148 14.2498 77.7148C13.6151 77.7148 13.1006 78.2265 13.1006 78.8577C13.1006 79.4889 13.6151 80.0006 14.2498 80.0006Z" fill="white"/>
<path d="M27.2742 2.28573C27.9089 2.28573 28.4234 1.77405 28.4234 1.14287C28.4234 0.511678 27.9089 0 27.2742 0C26.6395 0 26.125 0.511678 26.125 1.14287C26.125 1.77405 26.6395 2.28573 27.2742 2.28573Z" fill="white"/>
<path d="M27.2742 15.2369C27.9089 15.2369 28.4234 14.7252 28.4234 14.094C28.4234 13.4629 27.9089 12.9512 27.2742 12.9512C26.6395 12.9512 26.125 13.4629 26.125 14.094C26.125 14.7252 26.6395 15.2369 27.2742 15.2369Z" fill="white"/>
<path d="M27.2742 28.192C27.9089 28.192 28.4234 27.6803 28.4234 27.0491C28.4234 26.4179 27.9089 25.9062 27.2742 25.9062C26.6395 25.9062 26.125 26.4179 26.125 27.0491C26.125 27.6803 26.6395 28.192 27.2742 28.192Z" fill="white"/>
<path d="M27.2742 41.1432C27.9089 41.1432 28.4234 40.6315 28.4234 40.0003C28.4234 39.3691 27.9089 38.8574 27.2742 38.8574C26.6395 38.8574 26.125 39.3691 26.125 40.0003C26.125 40.6315 26.6395 41.1432 27.2742 41.1432Z" fill="white"/>
<path d="M27.2742 54.0963C27.9089 54.0963 28.4234 53.5846 28.4234 52.9534C28.4234 52.3222 27.9089 51.8105 27.2742 51.8105C26.6395 51.8105 26.125 52.3222 26.125 52.9534C26.125 53.5846 26.6395 54.0963 27.2742 54.0963Z" fill="white"/>
<path d="M27.2742 67.0475C27.9089 67.0475 28.4234 66.5358 28.4234 65.9046C28.4234 65.2734 27.9089 64.7617 27.2742 64.7617C26.6395 64.7617 26.125 65.2734 26.125 65.9046C26.125 66.5358 26.6395 67.0475 27.2742 67.0475Z" fill="white"/>
<path d="M27.2742 80.0006C27.9089 80.0006 28.4234 79.4889 28.4234 78.8577C28.4234 78.2265 27.9089 77.7148 27.2742 77.7148C26.6395 77.7148 26.125 78.2265 26.125 78.8577C26.125 79.4889 26.6395 80.0006 27.2742 80.0006Z" fill="white"/>
<path d="M40.375 2.28573C41.0097 2.28573 41.5242 1.77405 41.5242 1.14287C41.5242 0.511678 41.0097 0 40.375 0C39.7403 0 39.2258 0.511678 39.2258 1.14287C39.2258 1.77405 39.7403 2.28573 40.375 2.28573Z" fill="white"/>
<path d="M40.3753 15.2369C41.01 15.2369 41.5245 14.7252 41.5245 14.094C41.5245 13.4629 41.01 12.9512 40.3753 12.9512C39.7406 12.9512 39.2261 13.4629 39.2261 14.094C39.2261 14.7252 39.7406 15.2369 40.3753 15.2369Z" fill="white"/>
<path d="M40.3753 28.192C41.01 28.192 41.5245 27.6803 41.5245 27.0491C41.5245 26.4179 41.01 25.9062 40.3753 25.9062C39.7406 25.9062 39.2261 26.4179 39.2261 27.0491C39.2261 27.6803 39.7406 28.192 40.3753 28.192Z" fill="white"/>
<path d="M40.3753 41.1432C41.01 41.1432 41.5245 40.6315 41.5245 40.0003C41.5245 39.3691 41.01 38.8574 40.3753 38.8574C39.7406 38.8574 39.2261 39.3691 39.2261 40.0003C39.2261 40.6315 39.7406 41.1432 40.3753 41.1432Z" fill="white"/>
<path d="M40.3753 54.0963C41.01 54.0963 41.5245 53.5846 41.5245 52.9534C41.5245 52.3222 41.01 51.8105 40.3753 51.8105C39.7406 51.8105 39.2261 52.3222 39.2261 52.9534C39.2261 53.5846 39.7406 54.0963 40.3753 54.0963Z" fill="white"/>
<path d="M40.3753 67.0475C41.01 67.0475 41.5245 66.5358 41.5245 65.9046C41.5245 65.2734 41.01 64.7617 40.3753 64.7617C39.7406 64.7617 39.2261 65.2734 39.2261 65.9046C39.2261 66.5358 39.7406 67.0475 40.3753 67.0475Z" fill="white"/>
<path d="M40.3753 80.0006C41.01 80.0006 41.5245 79.4889 41.5245 78.8577C41.5245 78.2265 41.01 77.7148 40.3753 77.7148C39.7406 77.7148 39.2261 78.2265 39.2261 78.8577C39.2261 79.4889 39.7406 80.0006 40.3753 80.0006Z" fill="white"/>
<path d="M53.4756 2.28573C54.1103 2.28573 54.6248 1.77405 54.6248 1.14287C54.6248 0.511678 54.1103 0 53.4756 0C52.8409 0 52.3264 0.511678 52.3264 1.14287C52.3264 1.77405 52.8409 2.28573 53.4756 2.28573Z" fill="white"/>
<path d="M53.4759 15.2369C54.1105 15.2369 54.6251 14.7252 54.6251 14.094C54.6251 13.4629 54.1105 12.9512 53.4759 12.9512C52.8412 12.9512 52.3267 13.4629 52.3267 14.094C52.3267 14.7252 52.8412 15.2369 53.4759 15.2369Z" fill="white"/>
<path d="M53.4759 28.192C54.1105 28.192 54.6251 27.6803 54.6251 27.0491C54.6251 26.4179 54.1105 25.9062 53.4759 25.9062C52.8412 25.9062 52.3267 26.4179 52.3267 27.0491C52.3267 27.6803 52.8412 28.192 53.4759 28.192Z" fill="white"/>
<path d="M53.4759 41.1432C54.1105 41.1432 54.6251 40.6315 54.6251 40.0003C54.6251 39.3691 54.1105 38.8574 53.4759 38.8574C52.8412 38.8574 52.3267 39.3691 52.3267 40.0003C52.3267 40.6315 52.8412 41.1432 53.4759 41.1432Z" fill="white"/>
<path d="M53.4759 54.0963C54.1105 54.0963 54.6251 53.5846 54.6251 52.9534C54.6251 52.3222 54.1105 51.8105 53.4759 51.8105C52.8412 51.8105 52.3267 52.3222 52.3267 52.9534C52.3267 53.5846 52.8412 54.0963 53.4759 54.0963Z" fill="white"/>
<path d="M53.4759 67.0475C54.1105 67.0475 54.6251 66.5358 54.6251 65.9046C54.6251 65.2734 54.1105 64.7617 53.4759 64.7617C52.8412 64.7617 52.3267 65.2734 52.3267 65.9046C52.3267 66.5358 52.8412 67.0475 53.4759 67.0475Z" fill="white"/>
<path d="M53.4759 80.0006C54.1105 80.0006 54.6251 79.4889 54.6251 78.8577C54.6251 78.2265 54.1105 77.7148 53.4759 77.7148C52.8412 77.7148 52.3267 78.2265 52.3267 78.8577C52.3267 79.4889 52.8412 80.0006 53.4759 80.0006Z" fill="white"/>
<path d="M66.5 2.28573C67.1347 2.28573 67.6492 1.77405 67.6492 1.14287C67.6492 0.511678 67.1347 0 66.5 0C65.8653 0 65.3508 0.511678 65.3508 1.14287C65.3508 1.77405 65.8653 2.28573 66.5 2.28573Z" fill="white"/>
<path d="M66.5003 15.2369C67.135 15.2369 67.6495 14.7252 67.6495 14.094C67.6495 13.4629 67.135 12.9512 66.5003 12.9512C65.8656 12.9512 65.3511 13.4629 65.3511 14.094C65.3511 14.7252 65.8656 15.2369 66.5003 15.2369Z" fill="white"/>
<path d="M66.5003 28.192C67.135 28.192 67.6495 27.6803 67.6495 27.0491C67.6495 26.4179 67.135 25.9062 66.5003 25.9062C65.8656 25.9062 65.3511 26.4179 65.3511 27.0491C65.3511 27.6803 65.8656 28.192 66.5003 28.192Z" fill="white"/>
<path d="M66.5003 41.1432C67.135 41.1432 67.6495 40.6315 67.6495 40.0003C67.6495 39.3691 67.135 38.8574 66.5003 38.8574C65.8656 38.8574 65.3511 39.3691 65.3511 40.0003C65.3511 40.6315 65.8656 41.1432 66.5003 41.1432Z" fill="white"/>
<path d="M66.5003 54.0963C67.135 54.0963 67.6495 53.5846 67.6495 52.9534C67.6495 52.3222 67.135 51.8105 66.5003 51.8105C65.8656 51.8105 65.3511 52.3222 65.3511 52.9534C65.3511 53.5846 65.8656 54.0963 66.5003 54.0963Z" fill="white"/>
<path d="M66.5003 67.0475C67.135 67.0475 67.6495 66.5358 67.6495 65.9046C67.6495 65.2734 67.135 64.7617 66.5003 64.7617C65.8656 64.7617 65.3511 65.2734 65.3511 65.9046C65.3511 66.5358 65.8656 67.0475 66.5003 67.0475Z" fill="white"/>
<path d="M66.5003 80.0006C67.135 80.0006 67.6495 79.4889 67.6495 78.8577C67.6495 78.2265 67.135 77.7148 66.5003 77.7148C65.8656 77.7148 65.3511 78.2265 65.3511 78.8577C65.3511 79.4889 65.8656 80.0006 66.5003 80.0006Z" fill="white"/>
<path d="M79.6013 2.28573C80.236 2.28573 80.7505 1.77405 80.7505 1.14287C80.7505 0.511678 80.236 0 79.6013 0C78.9667 0 78.4521 0.511678 78.4521 1.14287C78.4521 1.77405 78.9667 2.28573 79.6013 2.28573Z" fill="white"/>
<path d="M79.6013 15.2369C80.236 15.2369 80.7505 14.7252 80.7505 14.094C80.7505 13.4629 80.236 12.9512 79.6013 12.9512C78.9667 12.9512 78.4521 13.4629 78.4521 14.094C78.4521 14.7252 78.9667 15.2369 79.6013 15.2369Z" fill="white"/>
<path d="M79.6013 28.192C80.236 28.192 80.7505 27.6803 80.7505 27.0491C80.7505 26.4179 80.236 25.9062 79.6013 25.9062C78.9667 25.9062 78.4521 26.4179 78.4521 27.0491C78.4521 27.6803 78.9667 28.192 79.6013 28.192Z" fill="white"/>
<path d="M79.6013 41.1432C80.236 41.1432 80.7505 40.6315 80.7505 40.0003C80.7505 39.3691 80.236 38.8574 79.6013 38.8574C78.9667 38.8574 78.4521 39.3691 78.4521 40.0003C78.4521 40.6315 78.9667 41.1432 79.6013 41.1432Z" fill="white"/>
<path d="M79.6013 54.0963C80.236 54.0963 80.7505 53.5846 80.7505 52.9534C80.7505 52.3222 80.236 51.8105 79.6013 51.8105C78.9667 51.8105 78.4521 52.3222 78.4521 52.9534C78.4521 53.5846 78.9667 54.0963 79.6013 54.0963Z" fill="white"/>
<path d="M79.6013 67.0475C80.236 67.0475 80.7505 66.5358 80.7505 65.9046C80.7505 65.2734 80.236 64.7617 79.6013 64.7617C78.9667 64.7617 78.4521 65.2734 78.4521 65.9046C78.4521 66.5358 78.9667 67.0475 79.6013 67.0475Z" fill="white"/>
<path d="M79.6013 80.0006C80.236 80.0006 80.7505 79.4889 80.7505 78.8577C80.7505 78.2265 80.236 77.7148 79.6013 77.7148C78.9667 77.7148 78.4521 78.2265 78.4521 78.8577C78.4521 79.4889 78.9667 80.0006 79.6013 80.0006Z" fill="white"/>
<path d="M92.7019 2.28573C93.3366 2.28573 93.8511 1.77405 93.8511 1.14287C93.8511 0.511678 93.3366 0 92.7019 0C92.0672 0 91.5527 0.511678 91.5527 1.14287C91.5527 1.77405 92.0672 2.28573 92.7019 2.28573Z" fill="white"/>
<path d="M92.7019 15.2369C93.3366 15.2369 93.8511 14.7252 93.8511 14.094C93.8511 13.4629 93.3366 12.9512 92.7019 12.9512C92.0672 12.9512 91.5527 13.4629 91.5527 14.094C91.5527 14.7252 92.0672 15.2369 92.7019 15.2369Z" fill="white"/>
<path d="M92.7019 28.192C93.3366 28.192 93.8511 27.6803 93.8511 27.0491C93.8511 26.4179 93.3366 25.9062 92.7019 25.9062C92.0672 25.9062 91.5527 26.4179 91.5527 27.0491C91.5527 27.6803 92.0672 28.192 92.7019 28.192Z" fill="white"/>
<path d="M92.7019 41.1432C93.3366 41.1432 93.8511 40.6315 93.8511 40.0003C93.8511 39.3691 93.3366 38.8574 92.7019 38.8574C92.0672 38.8574 91.5527 39.3691 91.5527 40.0003C91.5527 40.6315 92.0672 41.1432 92.7019 41.1432Z" fill="white"/>
<path d="M92.7019 54.0963C93.3366 54.0963 93.8511 53.5846 93.8511 52.9534C93.8511 52.3222 93.3366 51.8105 92.7019 51.8105C92.0672 51.8105 91.5527 52.3222 91.5527 52.9534C91.5527 53.5846 92.0672 54.0963 92.7019 54.0963Z" fill="white"/>
<path d="M92.7019 67.0475C93.3366 67.0475 93.8511 66.5358 93.8511 65.9046C93.8511 65.2734 93.3366 64.7617 92.7019 64.7617C92.0672 64.7617 91.5527 65.2734 91.5527 65.9046C91.5527 66.5358 92.0672 67.0475 92.7019 67.0475Z" fill="white"/>
<path d="M92.7019 80.0006C93.3366 80.0006 93.8511 79.4889 93.8511 78.8577C93.8511 78.2265 93.3366 77.7148 92.7019 77.7148C92.0672 77.7148 91.5527 78.2265 91.5527 78.8577C91.5527 79.4889 92.0672 80.0006 92.7019 80.0006Z" fill="white"/>
<path d="M105.726 2.28573C106.361 2.28573 106.875 1.77405 106.875 1.14287C106.875 0.511678 106.361 0 105.726 0C105.091 0 104.577 0.511678 104.577 1.14287C104.577 1.77405 105.091 2.28573 105.726 2.28573Z" fill="white"/>
<path d="M105.726 15.2369C106.361 15.2369 106.875 14.7252 106.875 14.094C106.875 13.4629 106.361 12.9512 105.726 12.9512C105.091 12.9512 104.577 13.4629 104.577 14.094C104.577 14.7252 105.091 15.2369 105.726 15.2369Z" fill="white"/>
<path d="M105.726 28.192C106.361 28.192 106.875 27.6803 106.875 27.0491C106.875 26.4179 106.361 25.9062 105.726 25.9062C105.091 25.9062 104.577 26.4179 104.577 27.0491C104.577 27.6803 105.091 28.192 105.726 28.192Z" fill="white"/>
<path d="M105.726 41.1432C106.361 41.1432 106.875 40.6315 106.875 40.0003C106.875 39.3691 106.361 38.8574 105.726 38.8574C105.091 38.8574 104.577 39.3691 104.577 40.0003C104.577 40.6315 105.091 41.1432 105.726 41.1432Z" fill="white"/>
<path d="M105.726 54.0963C106.361 54.0963 106.875 53.5846 106.875 52.9534C106.875 52.3222 106.361 51.8105 105.726 51.8105C105.091 51.8105 104.577 52.3222 104.577 52.9534C104.577 53.5846 105.091 54.0963 105.726 54.0963Z" fill="white"/>
<path d="M105.726 67.0475C106.361 67.0475 106.875 66.5358 106.875 65.9046C106.875 65.2734 106.361 64.7617 105.726 64.7617C105.091 64.7617 104.577 65.2734 104.577 65.9046C104.577 66.5358 105.091 67.0475 105.726 67.0475Z" fill="white"/>
<path d="M105.726 80.0006C106.361 80.0006 106.875 79.4889 106.875 78.8577C106.875 78.2265 106.361 77.7148 105.726 77.7148C105.091 77.7148 104.577 78.2265 104.577 78.8577C104.577 79.4889 105.091 80.0006 105.726 80.0006Z" fill="white"/>
<path d="M118.826 2.28573C119.461 2.28573 119.976 1.77405 119.976 1.14287C119.976 0.511678 119.461 0 118.826 0C118.192 0 117.677 0.511678 117.677 1.14287C117.677 1.77405 118.192 2.28573 118.826 2.28573Z" fill="white"/>
<path d="M118.826 15.2369C119.461 15.2369 119.976 14.7252 119.976 14.094C119.976 13.4629 119.461 12.9512 118.826 12.9512C118.192 12.9512 117.677 13.4629 117.677 14.094C117.677 14.7252 118.192 15.2369 118.826 15.2369Z" fill="white"/>
<path d="M118.826 28.192C119.461 28.192 119.976 27.6803 119.976 27.0491C119.976 26.4179 119.461 25.9062 118.826 25.9062C118.192 25.9062 117.677 26.4179 117.677 27.0491C117.677 27.6803 118.192 28.192 118.826 28.192Z" fill="white"/>
<path d="M118.826 41.1432C119.461 41.1432 119.976 40.6315 119.976 40.0003C119.976 39.3691 119.461 38.8574 118.826 38.8574C118.192 38.8574 117.677 39.3691 117.677 40.0003C117.677 40.6315 118.192 41.1432 118.826 41.1432Z" fill="white"/>
<path d="M118.826 54.0963C119.461 54.0963 119.976 53.5846 119.976 52.9534C119.976 52.3222 119.461 51.8105 118.826 51.8105C118.192 51.8105 117.677 52.3222 117.677 52.9534C117.677 53.5846 118.192 54.0963 118.826 54.0963Z" fill="white"/>
<path d="M118.826 67.0475C119.461 67.0475 119.976 66.5358 119.976 65.9046C119.976 65.2734 119.461 64.7617 118.826 64.7617C118.192 64.7617 117.677 65.2734 117.677 65.9046C117.677 66.5358 118.192 67.0475 118.826 67.0475Z" fill="white"/>
<path d="M118.826 80.0006C119.461 80.0006 119.976 79.4889 119.976 78.8577C119.976 78.2265 119.461 77.7148 118.826 77.7148C118.192 77.7148 117.677 78.2265 117.677 78.8577C117.677 79.4889 118.192 80.0006 118.826 80.0006Z" fill="white"/>
<path d="M131.851 2.28573C132.486 2.28573 133 1.77405 133 1.14287C133 0.511678 132.486 0 131.851 0C131.216 0 130.702 0.511678 130.702 1.14287C130.702 1.77405 131.216 2.28573 131.851 2.28573Z" fill="white"/>
<path d="M131.851 15.2369C132.486 15.2369 133 14.7252 133 14.094C133 13.4629 132.486 12.9512 131.851 12.9512C131.216 12.9512 130.702 13.4629 130.702 14.094C130.702 14.7252 131.216 15.2369 131.851 15.2369Z" fill="white"/>
<path d="M131.851 28.192C132.486 28.192 133 27.6803 133 27.0491C133 26.4179 132.486 25.9062 131.851 25.9062C131.216 25.9062 130.702 26.4179 130.702 27.0491C130.702 27.6803 131.216 28.192 131.851 28.192Z" fill="white"/>
<path d="M131.851 41.1432C132.486 41.1432 133 40.6315 133 40.0003C133 39.3691 132.486 38.8574 131.851 38.8574C131.216 38.8574 130.702 39.3691 130.702 40.0003C130.702 40.6315 131.216 41.1432 131.851 41.1432Z" fill="white"/>
<path d="M131.851 54.0963C132.486 54.0963 133 53.5846 133 52.9534C133 52.3222 132.486 51.8105 131.851 51.8105C131.216 51.8105 130.702 52.3222 130.702 52.9534C130.702 53.5846 131.216 54.0963 131.851 54.0963Z" fill="white"/>
<path d="M131.851 67.0475C132.486 67.0475 133 66.5358 133 65.9046C133 65.2734 132.486 64.7617 131.851 64.7617C131.216 64.7617 130.702 65.2734 130.702 65.9046C130.702 66.5358 131.216 67.0475 131.851 67.0475Z" fill="white"/>
<path d="M131.851 80.0006C132.486 80.0006 133 79.4889 133 78.8577C133 78.2265 132.486 77.7148 131.851 77.7148C131.216 77.7148 130.702 78.2265 130.702 78.8577C130.702 79.4889 131.216 80.0006 131.851 80.0006Z" fill="white"/>
<path d="M66.4998 66.441C81.1821 66.441 93.0845 54.6042 93.0845 40.0027C93.0845 25.4013 81.1821 13.5645 66.4998 13.5645C51.8174 13.5645 39.915 25.4013 39.915 40.0027C39.915 54.6042 51.8174 66.441 66.4998 66.441Z" stroke="#EE907B" stroke-width="3" stroke-miterlimit="10" stroke-linecap="round"/>
<path d="M39.9918 47.6953C44.2654 47.6953 47.7297 44.25 47.7297 40C47.7297 35.75 44.2654 32.3047 39.9918 32.3047C35.7183 32.3047 32.2539 35.75 32.2539 40C32.2539 44.25 35.7183 47.6953 39.9918 47.6953Z" fill="#DFD4CB" stroke="#FB8875" stroke-width="3" stroke-miterlimit="10"/>
</svg>
